<svg xmlns="http://www.w3.org/2000/svg" xmlns:xlink="http://www.w3.org/1999/xlink" viewBox="0 0 48 48"><defs><style>.cls-1{fill:none;}.cls-2{clip-path:url(#clip-path);}.cls-3{fill:#fe705a;}.cls-4{fill:#fff;}</style><clipPath id="clip-path" transform="translate(0 1)"><rect class="cls-1" y="-1" width="48" height="48"/></clipPath></defs><g id="Layer_1" data-name="Layer 1"><g class="cls-2"><path class="cls-3" d="M0,14.58C0,8.36,3.84,2.75,9.88,1.26,20-1.22,35.24-3.26,42.75,4.25c6.34,6.34,5.87,18.2,4.08,27.82C45.12,41.24,36.59,47,27.25,47H7.5A7.5,7.5,0,0,1,0,39.5Z" transform="translate(0 1)"/></g></g><g id="Layer_2" data-name="Layer 2"><path class="cls-4" d="M26.61,15c.06.16-.91.68-2.63.53a6.69,6.69,0,0,1-2.85-.93c-1-.57-1.81-1.61-2.64-2.05a4.74,4.74,0,0,0-2.87-.37,15.93,15.93,0,0,0-2.57.68c-.77.25-1.35.41-1.72.58s-.57.31-.66.25,0-.34.34-.69a6.73,6.73,0,0,1,1.65-1.06,11.64,11.64,0,0,1,2.72-1,5.55,5.55,0,0,1,3.78.41,7,7,0,0,1,1.52,1.21,8.44,8.44,0,0,0,1.15,1,7.34,7.34,0,0,0,2.32,1C25.59,14.91,26.57,14.78,26.61,15Z" transform="translate(0 1)"/><path class="cls-4" d="M16.52,19c.07,0,0,.51-.51,1.18a4,4,0,0,1-1.2,1,9.61,9.61,0,0,1-1.85.65,2,2,0,0,0-1.41,1,1.55,1.55,0,0,0,.35,1.71,3.61,3.61,0,0,0,2.33.53l1.49-.05a4.12,4.12,0,0,0,1.34-.17c.52-.16,1-1.29,1.5-2.12s.87-1.74,1.23-2.58a37.16,37.16,0,0,0,1.62-4.57,5.28,5.28,0,0,0,.33-3c-.21-.68-.58-.94-.52-1s.57,0,1,.81a3.11,3.11,0,0,1,.37,1.53,10,10,0,0,1-.23,2A28.87,28.87,0,0,1,21,20.72c-.34.88-.74,1.79-1.21,2.72-.23.46-.48.91-.75,1.39a3.08,3.08,0,0,1-1.43,1.4,5,5,0,0,1-1.8.26l-1.59,0A4.64,4.64,0,0,1,11,25.57a2.73,2.73,0,0,1-.55-3.15,2.53,2.53,0,0,1,1-1.1,4.21,4.21,0,0,1,1.18-.42C15.57,20.67,16.32,18.9,16.52,19Z" transform="translate(0 1)"/></g><g id="Layer_3" data-name="Layer 3"><path class="cls-4" d="M39.11,22.21c0,.16-.92.68-2.63.53a7,7,0,0,1-2.85-.93c-1-.57-1.82-1.62-2.64-2.06a4.77,4.77,0,0,0-2.88-.37,18.31,18.31,0,0,0-2.57.68,17.41,17.41,0,0,0-1.71.59c-.38.16-.58.31-.66.25s0-.34.34-.7a6.54,6.54,0,0,1,1.65-1.06,11.47,11.47,0,0,1,2.72-1,5.51,5.51,0,0,1,3.77.41,6.49,6.49,0,0,1,1.52,1.22,8.85,8.85,0,0,0,1.15,1,7.31,7.31,0,0,0,2.32,1C38.08,22.12,39.07,22,39.11,22.21Z" transform="translate(0 1)"/><path class="cls-4" d="M29,26.25c.08,0,0,.51-.51,1.18a3.81,3.81,0,0,1-1.19,1,9.73,9.73,0,0,1-1.86.66,2,2,0,0,0-1.4,1,1.54,1.54,0,0,0,.35,1.71,3.53,3.53,0,0,0,2.33.53l1.49-.05a4.19,4.19,0,0,0,1.34-.16c.52-.16,1-1.3,1.49-2.13s.87-1.73,1.24-2.57a40,40,0,0,0,1.61-4.57,5.31,5.31,0,0,0,.34-3c-.21-.69-.58-.95-.52-1s.57,0,1,.82a3.08,3.08,0,0,1,.37,1.53,11,11,0,0,1-.23,2,29,29,0,0,1-2.6,7.55c-.23.46-.48.92-.75,1.39a3,3,0,0,1-1.44,1.4,4.72,4.72,0,0,1-1.79.26l-1.6,0a4.61,4.61,0,0,1-3.17-.94A2.73,2.73,0,0,1,23,29.63a2.47,2.47,0,0,1,1-1.1,4.1,4.1,0,0,1,1.18-.42C28.07,27.89,28.82,26.12,29,26.25Z" transform="translate(0 1)"/></g></svg>
